<svg width="197" height="38" viewBox="0 0 197 38" fill="none" xmlns="http://www.w3.org/2000/svg">
<path d="M66.0245 12.2999C66.9559 12.3017 67.8744 12.5172 68.7095 12.9297C69.5445 13.3422 70.2738 13.9407 70.8411 14.6792C70.8612 14.706 70.8866 14.7283 70.9157 14.7449C70.9448 14.7615 70.9769 14.7719 71.0102 14.7756C71.0435 14.7793 71.0772 14.7761 71.1092 14.7662C71.1412 14.7563 71.1708 14.74 71.1963 14.7183L73.2245 13.1025C73.2504 13.0818 73.272 13.0561 73.2881 13.0271C73.3041 12.998 73.3142 12.966 73.3178 12.933C73.3214 12.9 73.3185 12.8666 73.3092 12.8348C73.2999 12.8029 73.2844 12.7732 73.2636 12.7474C72.4003 11.6273 71.2913 10.7205 70.022 10.0968C68.7527 9.47308 67.3571 9.14915 65.9428 9.14998C60.6467 9.14998 56.3522 13.7133 56.3522 19.3242C56.3522 24.9351 60.6609 29.4984 65.9428 29.4984C67.3569 29.5032 68.753 29.1813 70.0222 28.5579C71.2915 27.9346 72.3995 27.0265 73.26 25.9046C73.2816 25.8789 73.2977 25.8491 73.3072 25.817C73.3168 25.7848 73.3197 25.7511 73.3157 25.7178C73.3117 25.6845 73.3009 25.6524 73.284 25.6235C73.2671 25.5945 73.2444 25.5693 73.2174 25.5495L71.1927 23.9514C71.1669 23.9306 71.1371 23.9151 71.1053 23.9058C71.0734 23.8965 71.04 23.8936 71.007 23.8972C70.974 23.9008 70.942 23.911 70.913 23.927C70.8839 23.943 70.8582 23.9646 70.8375 23.9905C70.2673 24.7242 69.5377 25.3187 68.7039 25.7291C67.8701 26.1394 66.9538 26.3549 66.0245 26.3592C62.4049 26.3592 59.5739 23.2696 59.5739 19.3313C59.5739 15.393 62.4049 12.2999 66.0245 12.2999Z" fill="white"/>
<path d="M75.8776 8.57097H78.4209C78.4878 8.57097 78.5519 8.59753 78.5992 8.64482C78.6465 8.6921 78.6731 8.75623 78.6731 8.82311V28.9869C78.6731 29.0528 78.6469 29.1161 78.6003 29.1627C78.5536 29.2093 78.4904 29.2355 78.4245 29.2355H75.8812C75.8143 29.2355 75.7502 29.2089 75.7029 29.1616C75.6556 29.1144 75.629 29.0502 75.629 28.9833V8.82311C75.6285 8.79016 75.6346 8.75746 75.6469 8.72688C75.6592 8.69631 75.6774 8.66849 75.7005 8.64503C75.7237 8.62157 75.7513 8.60294 75.7817 8.59022C75.8121 8.57751 75.8447 8.57097 75.8776 8.57097Z" fill="white"/>
<path d="M87.3399 15.5456C83.969 15.5456 80.559 17.932 80.559 22.4953C80.559 26.5046 83.4753 29.5303 87.3399 29.5303C91.2045 29.5303 94.1492 26.5046 94.1492 22.4953C94.1492 18.486 91.2223 15.5456 87.3399 15.5456ZM91.0802 22.4953C91.0802 24.8107 89.4711 26.5579 87.3399 26.5579C85.2087 26.5579 83.6316 24.8107 83.6316 22.4953C83.6316 20.1799 85.2264 18.5179 87.3399 18.5179C89.4534 18.5179 91.0802 20.2261 91.0802 22.4953Z" fill="white"/>
<path d="M107.857 15.8366H105.314C105.281 15.8361 105.248 15.8422 105.217 15.8545C105.187 15.8668 105.159 15.885 105.135 15.9082C105.112 15.9313 105.093 15.9588 105.081 15.9892C105.068 16.0196 105.061 16.0523 105.061 16.0852V22.8325C105.061 25.4675 103.243 26.4015 101.683 26.4015C100.305 26.4015 98.9162 25.361 98.9162 23.0349V16.0852C98.9162 16.0523 98.9097 16.0196 98.897 15.9892C98.8843 15.9588 98.8656 15.9313 98.8422 15.9082C98.8187 15.885 98.7909 15.8668 98.7603 15.8545C98.7297 15.8422 98.697 15.8361 98.664 15.8366H96.1208C96.0548 15.8366 95.9916 15.8628 95.945 15.9094C95.8983 15.956 95.8721 16.0193 95.8721 16.0852V23.3652C95.8721 27.3603 97.6801 29.5585 100.966 29.5585C102.159 29.5585 104.092 28.8731 104.816 27.3603L105.061 27.41V28.9868C105.061 29.0536 105.088 29.1178 105.135 29.165C105.182 29.2123 105.247 29.2389 105.314 29.2389H107.857C107.924 29.2389 107.988 29.2123 108.035 29.165C108.082 29.1178 108.109 29.0536 108.109 28.9868V16.0852C108.109 16.0523 108.102 16.0196 108.09 15.9892C108.077 15.9588 108.058 15.9313 108.035 15.9082C108.011 15.885 107.984 15.8668 107.953 15.8545C107.922 15.8422 107.89 15.8361 107.857 15.8366Z" fill="white"/>
<path d="M123.475 8.57097H120.929C120.896 8.57097 120.863 8.57751 120.833 8.59022C120.802 8.60294 120.775 8.62157 120.751 8.64503C120.728 8.66849 120.71 8.69631 120.698 8.72688C120.686 8.75746 120.679 8.79016 120.68 8.82311V17.8361L120.524 17.5875C119.749 16.341 118.083 15.5349 116.279 15.5349C113.167 15.5349 110.02 17.932 110.02 22.513C110.02 26.5082 112.723 29.5196 116.304 29.5196C117.668 29.5196 119.589 28.9727 120.524 27.4386L120.68 27.1829V28.9869C120.679 29.0198 120.686 29.0526 120.698 29.0831C120.71 29.1137 120.728 29.1415 120.751 29.165C120.775 29.1884 120.802 29.2071 120.833 29.2198C120.863 29.2325 120.896 29.239 120.929 29.239H123.475C123.508 29.239 123.541 29.2325 123.571 29.2198C123.602 29.2071 123.629 29.1884 123.652 29.165C123.676 29.1415 123.694 29.1137 123.706 29.0831C123.718 29.0526 123.725 29.0198 123.724 28.9869V8.82311C123.725 8.79016 123.718 8.75746 123.706 8.72688C123.694 8.69631 123.676 8.66849 123.652 8.64503C123.629 8.62157 123.602 8.60294 123.571 8.59022C123.541 8.57751 123.508 8.57097 123.475 8.57097ZM120.634 22.4953C120.651 23.0115 120.565 23.526 120.382 24.009C120.199 24.492 119.922 24.9339 119.567 25.3091C119.211 25.6842 118.785 25.9853 118.313 26.1948C117.841 26.4042 117.332 26.518 116.815 26.5295C114.734 26.5295 113.103 24.7539 113.103 22.4953C113.103 20.2367 114.734 18.5179 116.815 18.5179C117.847 18.544 118.826 18.9768 119.539 19.7219C120.253 20.4671 120.642 21.464 120.623 22.4953H120.634Z" fill="white"/>
<path d="M127.286 15.8366H129.83C129.896 15.8366 129.959 15.8628 130.006 15.9094C130.052 15.956 130.078 16.0192 130.078 16.0852V28.9867C130.078 29.0527 130.052 29.1159 130.006 29.1625C129.959 29.2091 129.896 29.2353 129.83 29.2353H127.286C127.22 29.2353 127.155 29.2088 127.108 29.1615C127.061 29.1142 127.034 29.0501 127.034 28.9832V16.0852C127.035 16.0189 127.062 15.9557 127.109 15.9092C127.157 15.8627 127.22 15.8366 127.286 15.8366Z" fill="white"/>
<path d="M128.569 8.97973C128.305 8.97406 128.043 9.02103 127.798 9.11789C127.554 9.21475 127.33 9.35955 127.142 9.5438C126.954 9.72804 126.804 9.94802 126.702 10.1908C126.6 10.4336 126.548 10.6944 126.548 10.9578C126.553 11.4883 126.769 11.995 127.148 12.3665C127.527 12.7381 128.038 12.9441 128.569 12.9393C128.83 12.9426 129.09 12.8937 129.333 12.7955C129.575 12.6972 129.796 12.5515 129.981 12.367C130.167 12.1825 130.314 11.9628 130.413 11.7208C130.513 11.4788 130.563 11.2194 130.561 10.9578C130.566 10.6956 130.517 10.4352 130.418 10.1923C130.32 9.94943 130.173 9.72899 129.987 9.54425C129.801 9.35951 129.579 9.21427 129.335 9.11726C129.092 9.02025 128.831 8.97347 128.569 8.97973Z" fill="white"/>
<path d="M140.554 15.5456C139.438 15.5456 137.456 16.1457 136.7 17.7438L136.455 17.6941V16.0854C136.455 16.0524 136.448 16.0198 136.435 15.9894C136.423 15.959 136.404 15.9314 136.381 15.9083C136.357 15.8852 136.329 15.867 136.299 15.8547C136.268 15.8424 136.235 15.8363 136.202 15.8368H133.659C133.593 15.8368 133.53 15.863 133.483 15.9096C133.437 15.9562 133.411 16.0194 133.411 16.0854V28.9869C133.41 29.0199 133.416 29.0526 133.428 29.0831C133.441 29.1137 133.459 29.1415 133.482 29.165C133.505 29.1885 133.533 29.2071 133.563 29.2198C133.594 29.2325 133.626 29.2391 133.659 29.2391H136.202C136.269 29.2391 136.334 29.2125 136.381 29.1652C136.428 29.1179 136.455 29.0538 136.455 28.9869V22.2396C136.455 19.6259 138.273 18.6884 139.833 18.6884C141.211 18.6884 142.6 19.7218 142.6 22.0265V28.9869C142.6 29.0538 142.626 29.1179 142.674 29.1652C142.721 29.2125 142.785 29.2391 142.852 29.2391H145.402C145.469 29.2391 145.533 29.2125 145.581 29.1652C145.628 29.1179 145.654 29.0538 145.654 28.9869V21.7105C145.647 17.7367 143.836 15.5456 140.554 15.5456Z" fill="white"/>
<path d="M160.846 15.8371H158.303C158.27 15.8366 158.238 15.8427 158.207 15.855C158.176 15.8673 158.149 15.8855 158.125 15.9086C158.102 15.9318 158.083 15.9593 158.07 15.9897C158.058 16.0201 158.051 16.0527 158.051 16.0857V17.8613L157.898 17.6127C157.12 16.3662 155.454 15.5601 153.636 15.5601C150.528 15.5601 147.377 17.9572 147.377 22.5382C147.377 26.5334 150.08 29.5448 153.664 29.5448C155.025 29.5448 156.946 28.9979 157.884 27.4638L158.037 27.2081V28.9872C158.037 29.0541 158.063 29.1182 158.111 29.1655C158.158 29.2128 158.222 29.2394 158.289 29.2394H160.832C160.865 29.2394 160.898 29.2328 160.928 29.2201C160.959 29.2074 160.986 29.1888 161.009 29.1653C161.032 29.1419 161.051 29.114 161.063 29.0835C161.075 29.0529 161.081 29.0202 161.081 28.9872V16.0857C161.081 16.0221 161.057 15.961 161.013 15.9147C160.97 15.8685 160.91 15.8407 160.846 15.8371ZM158.005 22.4956C158.022 23.0128 157.936 23.5281 157.752 24.0118C157.568 24.4955 157.29 24.9378 156.934 25.3131C156.578 25.6884 156.15 25.9893 155.677 26.1981C155.203 26.407 154.693 26.5197 154.176 26.5298C152.094 26.5298 150.467 24.7542 150.467 22.4956C150.467 20.2371 152.094 18.5183 154.176 18.5183C155.21 18.5406 156.192 18.9718 156.909 19.7174C157.625 20.4629 158.017 21.462 157.998 22.4956H158.005Z" fill="white"/>
<path d="M172.451 15.8827C171.871 15.6477 171.251 15.5271 170.625 15.5276C168.934 15.5276 167.705 16.5396 167.073 18.4573L166.846 18.4253V16.0851C166.846 16.0521 166.839 16.0195 166.826 15.9891C166.814 15.9587 166.795 15.9312 166.772 15.908C166.748 15.8849 166.72 15.8667 166.69 15.8544C166.659 15.8421 166.627 15.836 166.594 15.8365H164.05C164.017 15.836 163.985 15.8421 163.954 15.8544C163.923 15.8667 163.896 15.8849 163.872 15.908C163.849 15.9312 163.83 15.9587 163.817 15.9891C163.805 16.0195 163.798 16.0521 163.798 16.0851V28.9867C163.798 29.0535 163.825 29.1177 163.872 29.1649C163.919 29.2122 163.983 29.2388 164.05 29.2388H166.622C166.655 29.2388 166.688 29.2322 166.718 29.2195C166.748 29.2068 166.776 29.1882 166.799 29.1647C166.822 29.1413 166.84 29.1134 166.853 29.0829C166.865 29.0523 166.871 29.0196 166.871 28.9867V24.5831C166.871 19.3274 168.97 18.5461 170.224 18.5461C170.753 18.5474 171.276 18.6562 171.762 18.8657C171.796 18.8815 171.833 18.8898 171.87 18.8898C171.908 18.8898 171.945 18.8815 171.978 18.8657C172.011 18.8485 172.039 18.8243 172.062 18.7949C172.084 18.7654 172.099 18.7313 172.106 18.6952L172.611 16.1703C172.623 16.1112 172.614 16.0496 172.584 15.9968C172.555 15.944 172.508 15.9035 172.451 15.8827Z" fill="white"/>
<path d="M186.564 15.9467C186.541 15.9122 186.51 15.884 186.473 15.8647C186.436 15.8455 186.395 15.8358 186.354 15.8366H183.615C183.565 15.8372 183.516 15.8526 183.474 15.8811C183.432 15.9095 183.4 15.9496 183.381 15.9964L180.067 24.5833L176.721 15.9964C176.702 15.9496 176.67 15.9095 176.628 15.8811C176.586 15.8526 176.537 15.8372 176.486 15.8366H173.694C173.654 15.8364 173.613 15.8463 173.577 15.8656C173.542 15.8848 173.511 15.9127 173.488 15.9467C173.465 15.9807 173.451 16.0199 173.446 16.0608C173.442 16.1017 173.448 16.143 173.464 16.1811L178.436 28.3902L175.691 35.5246C175.673 35.5633 175.666 35.6058 175.67 35.6481C175.673 35.6903 175.687 35.7311 175.71 35.7665C175.734 35.8019 175.766 35.8308 175.803 35.8506C175.841 35.8704 175.883 35.8804 175.925 35.8797H178.589C178.639 35.8799 178.688 35.8647 178.73 35.8361C178.771 35.8075 178.803 35.767 178.82 35.7199L186.585 16.1882C186.603 16.1496 186.61 16.107 186.606 16.0646C186.602 16.0223 186.588 15.9817 186.564 15.9467Z" fill="white"/>
<path d="M43.7815 11.4828C42.8625 8.60181 41.056 6.08501 38.6203 4.29215C36.1846 2.49928 33.2443 1.52212 30.2197 1.50033C27.6625 1.48567 25.1497 2.16788 22.9511 3.47368C20.7526 4.77947 18.9515 6.65948 17.7413 8.91171C15.5172 9.3102 13.4783 10.408 11.9214 12.0452C10.3646 13.6824 9.37094 15.7737 9.08521 18.0146C8.79948 20.2555 9.23656 22.5291 10.3328 24.5044C11.4291 26.4798 13.1273 28.0538 15.1803 28.9974L15.4467 29.1181H15.4645V26.0996C14.0561 25.2353 12.9535 23.952 12.3113 22.4297C11.6691 20.9074 11.5194 19.2224 11.8833 17.6108C12.2471 15.9992 13.1062 14.5418 14.3402 13.4428C15.5742 12.3439 17.1212 11.6585 18.7643 11.4828L19.5103 11.4047L19.8371 10.7335C20.7649 8.76756 22.2349 7.10731 24.0741 5.94791C25.9133 4.78852 28.0454 4.17816 30.2197 4.1886C32.8105 4.20687 35.3208 5.09061 37.3514 6.69929C39.3821 8.30796 40.8164 10.5492 41.4265 13.0666L41.6822 14.0823H42.7478C44.4657 14.1175 46.1016 14.8229 47.3063 16.0478C48.5109 17.2727 49.1887 18.92 49.1948 20.6378C49.1948 23.1414 47.7491 25.1905 45.2875 26.2274V29.0897L45.4651 29.0329C49.4221 27.7367 51.8802 24.5193 51.8802 20.6378C51.8639 18.3913 51.0348 16.2265 49.5461 14.5437C48.0574 12.8608 46.0097 11.7735 43.7815 11.4828Z" fill="#3847BE"/>
<path d="M25.0122 28.7706L25.6019 29.3601C25.6178 29.3765 25.6286 29.3972 25.6329 29.4196C25.6373 29.442 25.635 29.4652 25.6263 29.4864C25.6176 29.5075 25.6029 29.5256 25.5841 29.5385C25.5652 29.5514 25.543 29.5585 25.5202 29.559H20.867C20.3018 29.559 19.7597 29.3345 19.36 28.9349C18.9603 28.5353 18.7358 27.9934 18.7358 27.4283V18.394C18.7358 18.3629 18.7234 18.3331 18.7014 18.3111C18.6794 18.2891 18.6496 18.2768 18.6185 18.2768H17.624C17.6008 18.277 17.5781 18.2704 17.5587 18.2578C17.5394 18.2451 17.5241 18.227 17.515 18.2058C17.5059 18.1845 17.5033 18.161 17.5075 18.1383C17.5117 18.1155 17.5226 18.0945 17.5387 18.0779L21.4886 14.129C21.4995 14.1179 21.5125 14.1091 21.5268 14.1031C21.5412 14.0971 21.5565 14.0941 21.5721 14.0941C21.5876 14.0941 21.603 14.0971 21.6173 14.1031C21.6317 14.1091 21.6446 14.1179 21.6556 14.129L25.6019 18.0779C25.6178 18.0943 25.6286 18.115 25.6329 18.1374C25.6373 18.1598 25.635 18.183 25.6263 18.2041C25.6176 18.2253 25.6029 18.2434 25.5841 18.2563C25.5652 18.2692 25.543 18.2763 25.5202 18.2768H24.5114C24.48 18.2768 24.4498 18.289 24.4272 18.3109C24.4047 18.3328 24.3916 18.3626 24.3906 18.394V27.272C24.3921 27.834 24.6155 28.3726 25.0122 28.7706Z" fill="#3847BE"/>
<path d="M33.7396 28.7701L34.3328 29.3596C34.3489 29.3762 34.3598 29.3972 34.364 29.42C34.3682 29.4427 34.3656 29.4662 34.3565 29.4875C34.3474 29.5087 34.3322 29.5268 34.3128 29.5395C34.2934 29.5521 34.2707 29.5587 34.2476 29.5585H29.605C29.0398 29.5585 28.4977 29.334 28.098 28.9344C27.6983 28.5348 27.4738 27.9929 27.4738 27.4278V20.6769C27.4738 20.6455 27.4616 20.6153 27.4397 20.5928C27.4178 20.5702 27.388 20.5571 27.3566 20.5562H26.3513C26.3285 20.5557 26.3063 20.5486 26.2874 20.5357C26.2686 20.5228 26.2539 20.5046 26.2452 20.4835C26.2366 20.4624 26.2342 20.4392 26.2386 20.4168C26.2429 20.3943 26.2537 20.3737 26.2696 20.3573L30.216 16.4154C30.2269 16.4044 30.2399 16.3956 30.2542 16.3896C30.2685 16.3836 30.2839 16.3805 30.2994 16.3805C30.315 16.3805 30.3304 16.3836 30.3447 16.3896C30.359 16.3956 30.372 16.4044 30.3829 16.4154L34.3328 20.3502C34.3489 20.3668 34.3598 20.3878 34.364 20.4105C34.3682 20.4333 34.3656 20.4568 34.3565 20.478C34.3474 20.4993 34.3322 20.5174 34.3128 20.53C34.2934 20.5427 34.2707 20.5493 34.2476 20.5491H33.2388C33.2074 20.55 33.1775 20.5631 33.1557 20.5857C33.1338 20.6082 33.1215 20.6384 33.1216 20.6698V27.2715C33.122 27.8329 33.3441 28.3715 33.7396 28.7701Z" fill="#3847BE"/>
<path d="M42.4706 28.7701L43.0603 29.3596C43.0762 29.376 43.087 29.3967 43.0913 29.4191C43.0957 29.4415 43.0933 29.4647 43.0847 29.4859C43.076 29.507 43.0613 29.5251 43.0425 29.538C43.0236 29.5509 43.0014 29.5581 42.9786 29.5585H38.3218C37.7566 29.5585 37.2145 29.334 36.8148 28.9344C36.4151 28.5348 36.1906 27.9929 36.1906 27.4278V22.9426C36.1906 22.9115 36.1782 22.8817 36.1563 22.8597C36.1343 22.8378 36.1045 22.8254 36.0734 22.8254H35.0788C35.0552 22.8257 35.0321 22.8188 35.0125 22.8057C34.9929 22.7926 34.9777 22.7739 34.9688 22.7521C34.96 22.7302 34.958 22.7062 34.963 22.6832C34.9681 22.6601 34.9799 22.6392 34.9971 22.623L38.947 18.6776C38.9576 18.6666 38.9703 18.6579 38.9843 18.652C38.9984 18.646 39.0134 18.643 39.0287 18.643C39.0439 18.643 39.059 18.646 39.0731 18.652C39.0871 18.6579 39.0998 18.6666 39.1104 18.6776L43.0603 22.623C43.0774 22.6392 43.0893 22.6601 43.0943 22.6832C43.0994 22.7062 43.0973 22.7302 43.0885 22.7521C43.0797 22.7739 43.0645 22.7926 43.0449 22.8057C43.0253 22.8188 43.0022 22.8257 42.9786 22.8254H41.9662C41.9351 22.8254 41.9053 22.8378 41.8834 22.8597C41.8614 22.8817 41.849 22.9115 41.849 22.9426V27.2715C41.8504 27.8335 42.0739 28.3721 42.4706 28.7701Z" fill="#3847BE"/>
</svg>
