<?xml version="1.0" encoding="UTF-8"?>
<svg version="1.1" xmlns="http://www.w3.org/2000/svg" width="2333" height="307">
<path d="M0 0 C0.92941406 0.38929688 1.85882813 0.77859375 2.81640625 1.1796875 C14.22518377 6.66498878 24.60157065 17.11985754 29.140625 28.98046875 C34.28453574 43.85071775 34.97880219 59.1434294 28.78125 73.90234375 C23.05815034 85.23726057 13.31174202 93.81702948 4.375 102.625 C-2.64704538 109.48411903 -2.64704538 109.48411903 -9.24609375 116.7421875 C-14.91297284 123.35744924 -21.26209565 129.36564625 -27.4375 135.5 C-28.75479059 136.81226585 -30.07184986 138.12476395 -31.38867188 139.4375 C-34.5897861 142.62768506 -37.79401865 145.81470651 -41 149 C-36.46287323 154.38224667 -36.46287323 154.38224667 -31.59765625 159.46484375 C-31.01693359 160.03783203 -30.43621094 160.61082031 -29.83789062 161.20117188 C-28.65824609 162.35486164 -27.47855887 163.50850777 -26.29882812 164.66210938 C-23.33362632 167.5879065 -20.48859714 170.55121979 -17.78491211 173.72167969 C-14.02234807 178.04406763 -10.00754561 182.05214646 -5.90625 186.05078125 C-4.36543788 187.56920746 -2.82508743 189.08810226 -1.28515625 190.60742188 C1.10620631 192.96177934 3.50042579 195.31291528 5.90283203 197.65600586 C21.02953543 212.42771694 32.96625248 225.85081984 33.25 248.125 C33.10079542 263.38862888 28.04474131 276.67156748 17.41015625 287.75 C4.11919235 300.15777181 -10.06339844 303.52307676 -27.67578125 303.27734375 C-44.3504822 302.68695888 -56.77634298 293.58810511 -68 282 C-69.36236191 280.48292174 -70.71825864 278.96002615 -72.06958008 277.43310547 C-76.88293724 272.06922387 -81.91984654 266.96894575 -87.0390625 261.8984375 C-88.45288466 260.49040244 -89.86670389 259.08236443 -91.28035545 257.6741581 C-93.72639986 255.23892047 -96.17579381 252.807057 -98.625 250.375 C-101.56142954 247.4590771 -104.49720237 244.54251286 -107.42904663 241.62197876 C-109.24423819 239.8142326 -111.06167351 238.00873559 -112.88174438 236.2059021 C-134.56253053 214.61126443 -165.55199394 178.8643905 -166.0546875 146.4765625 C-164.99992602 123.8679794 -155.93170241 106.90582526 -140 91 C-139.26297852 90.26136719 -138.52595703 89.52273437 -137.76660156 88.76171875 C-131.12745134 82.11461745 -131.12745134 82.11461745 -127.81298828 78.84863281 C-127.0342334 78.07874023 -126.25547852 77.30884766 -125.453125 76.515625 C-124.76379883 75.83790039 -124.07447266 75.16017578 -123.36425781 74.46191406 C-121.50940974 72.53045103 -119.77108985 70.57913229 -118.03320312 68.54638672 C-112.64204192 62.34540986 -106.79977665 56.5731413 -101.015625 50.7421875 C-100.39588554 50.11712437 -99.77614609 49.49206123 -99.13762665 48.84805679 C-95.86024816 45.54411352 -92.57931252 42.24374533 -89.29589844 38.94580078 C-86.59871285 36.23526279 -83.9089904 33.51763776 -81.22558594 30.79345703 C-77.96083061 27.47912654 -74.68372979 24.17748285 -71.39763641 20.88431168 C-70.15756753 19.63757943 -68.92171577 18.38663623 -67.69043732 17.13122177 C-60.69890094 10.01044437 -54.26025444 4.111926 -45 0 C-43.9275 -0.48210937 -42.855 -0.96421875 -41.75 -1.4609375 C-28.09855085 -5.99849304 -13.25083761 -5.65606223 0 0 Z M-96.3515625 64.21875 C-97.03863281 64.90453125 -97.72570312 65.5903125 -98.43359375 66.296875 C-99.15675781 67.02390625 -99.87992188 67.7509375 -100.625 68.5 C-101.32496094 69.19609375 -102.02492187 69.8921875 -102.74609375 70.609375 C-106.07591039 73.94536941 -109.31021202 77.30926275 -112.37109375 80.89453125 C-115.91409679 85.0081719 -119.77654957 88.73916856 -123.67797852 92.51025391 C-139.51532667 107.87541005 -150.27341468 123.14562293 -151.375 145.875 C-150.46681658 177.96414753 -119.22190863 208.5049462 -99 230.78515625 C-97.20396471 232.77412502 -95.44046697 234.78563194 -93.6875 236.8125 C-85.24660504 246.44571869 -76.44021382 255.67743058 -67.4147644 264.76147461 C-66.35886712 265.82479291 -65.30456577 266.88969874 -64.25198364 267.95629883 C-52.04113781 280.31450898 -40.65997225 290.84475655 -22.5 291.25 C-8.82890699 290.92676136 1.06181119 285.93830954 10.5078125 276.05078125 C19.35866061 265.21612236 21.17667387 253.55029306 20 240 C17.32811289 226.47038056 6.89122346 216.44443874 -2.59765625 207.14453125 C-3.60152477 206.14883253 -4.60463717 205.15237099 -5.60704041 204.15519714 C-8.21992716 201.55923212 -10.84127972 198.97200454 -13.46514893 196.387146 C-17.66796001 192.24407454 -21.85781056 188.08790757 -26.04699516 183.93106651 C-27.49475403 182.49704996 -28.94637524 181.06704294 -30.3986969 179.63764954 C-34.95143037 175.13457862 -39.3436773 170.58041984 -43.50999451 165.71733093 C-45.50929571 163.41300265 -47.63926404 161.26491548 -49.8125 159.125 C-51.08480469 157.86429688 -51.08480469 157.86429688 -52.3828125 156.578125 C-53.24648437 155.72734375 -54.11015625 154.8765625 -55 154 C-60.35663147 148.72331826 -65.61703355 143.44481975 -70.51171875 137.73339844 C-72.44977026 135.47615341 -74.4772196 133.30628185 -76.5 131.125 C-82.9383882 123.9349218 -87.93873476 116.45587306 -92.3125 107.875 C-92.65031494 107.21806152 -92.98812988 106.56112305 -93.33618164 105.88427734 C-99.25768187 93.88540849 -99.33055138 82.5991852 -95.0703125 70.0078125 C-94.71710938 69.01523438 -94.36390625 68.02265625 -94 67 C-93.33056389 65.00092528 -92.66308137 63.00119153 -92 61 C-93.87644057 61 -95.10097603 62.97043674 -96.3515625 64.21875 Z " fill="#FFFFFF" transform="translate(166,4)"/>
<path d="M0 0 C9.07057723 7.29311272 17.11797554 15.96539276 25.32348633 24.19311523 C27.6891419 26.56414563 30.06011514 28.92976422 32.43164062 31.29492188 C33.95865417 32.82259604 35.48535757 34.35058028 37.01171875 35.87890625 C37.70980148 36.57496475 38.40788422 37.27102325 39.12712097 37.98817444 C43.06212464 41.94174882 46.80065783 46.00510298 50.44526672 50.2273407 C52.35401757 52.40364 54.37017766 54.43588668 56.453125 56.4453125 C65.7109909 65.47515687 74.54589506 74.40997239 82 85 C82.4851709 85.68916504 82.9703418 86.37833008 83.47021484 87.08837891 C99.49255564 110.08401595 115.00339616 133.76340141 110.3828125 162.890625 C105.56364454 181.57023179 93.97157773 195.40971211 80.4375 208.625 C78.62126742 210.4063795 76.80741923 212.19019364 74.99609375 213.9765625 C74.20388428 214.75080566 73.4116748 215.52504883 72.59545898 216.32275391 C70.62701766 218.353224 68.7909593 220.39168915 66.95776367 222.5378418 C61.82773986 228.4484023 56.22326105 233.90023016 50.6796875 239.41796875 C49.49075679 240.60502956 48.30205024 241.79231491 47.11355591 242.97981262 C44.00406757 246.08550974 40.89158998 249.18819367 37.77844238 252.29022217 C34.6148026 255.44361608 31.45400102 258.59985202 28.29296875 261.75585938 C22.7322979 267.3069986 17.16916974 272.85566451 11.60421753 278.4025116 C9.83244194 280.16970903 8.06613538 281.94240294 6.30471802 283.71992493 C-5.08936046 294.99217347 -18.31936265 298.29307586 -33.79223633 298.31689453 C-49.35650259 298.10077975 -61.41986247 292.01581549 -72.67578125 281.484375 C-84.19952369 269.16655955 -87.52184389 255.17800361 -87.28125 238.8828125 C-86.44955341 217.40008946 -71.1312505 203.94581769 -56.875 189.875 C-48.99108055 182.18981701 -48.99108055 182.18981701 -41.56640625 174.0703125 C-36.42463155 168.04615697 -30.67973108 162.57517525 -25.0625 157 C-23.88973991 155.83226626 -22.71721202 154.66429926 -21.54492188 153.49609375 C-18.69928311 150.66136766 -15.85052547 147.82981176 -13 145 C-17.73752584 139.29603982 -22.82228137 134.06204254 -28.08984375 128.84765625 C-28.95259415 127.98869247 -29.81534454 127.1297287 -30.70423889 126.24473572 C-34.36959543 122.59561893 -38.04088208 118.95248975 -41.71166992 115.30883789 C-44.40231381 112.63636596 -47.08988611 109.96083168 -49.77734375 107.28515625 C-50.5973436 106.47345474 -51.41734344 105.66175323 -52.26219177 104.82545471 C-56.52019155 100.58546555 -60.61468816 96.27572379 -64.51184082 91.70051575 C-66.71912598 89.17825655 -69.12785282 86.92852353 -71.5625 84.625 C-81.82979945 74.52225743 -86.95821173 62.6769249 -87.421875 48.20727539 C-87.53090993 31.93210801 -83.0455926 18.39029674 -71.66796875 6.421875 C-51.70619907 -11.69861871 -22.81838992 -15.00027268 0 0 Z M-62.375 15.625 C-72.12867915 25.99122904 -74.50602936 36.71733265 -74.2734375 50.4375 C-73.55513134 67.76219107 -59.50538635 78.74583946 -48 90.0625 C-45.3299348 92.69580065 -42.66311782 95.33232967 -40 97.97265625 C-39.04462341 98.9196489 -39.04462341 98.9196489 -38.06994629 99.88577271 C-34.48771072 103.45631288 -31.07979095 107.09992927 -27.8125 110.96264648 C-23.29673566 116.03862351 -18.33234657 120.72680778 -13.5 125.5 C-0.94702257 137.8993123 -0.94702257 137.8993123 4.4609375 144.24707031 C7.05937497 147.20658507 9.91849512 149.89142505 12.75 152.625 C27.80401046 167.46395317 42.71815691 185.73373594 44.25 207.5625 C44.1394313 215.76037904 41.8750093 223.83123279 38 231 C38.33 231.66 38.66 232.32 39 233 C42.02510958 230.00428676 45.04427875 227.00265195 48.0625 224 C48.91005859 223.16082031 49.75761719 222.32164062 50.63085938 221.45703125 C54.39694077 217.70549071 58.10346836 213.95641436 61.5625 209.91796875 C64.71401048 206.24266534 68.12101966 202.909018 71.61083984 199.55688477 C86.71338901 184.98839217 96.56956194 169.58057646 97.0703125 147.96484375 C95.93667031 122.657949 75.53601767 99.535379 60 81 C59.02732524 79.83074457 58.05466829 78.66147431 57.08203125 77.4921875 C52.02319942 71.43959352 46.83281027 65.53075459 41.484375 59.73046875 C39.52218788 57.57391404 37.5988343 55.39636541 35.6875 53.1953125 C31.96994038 48.93473293 28.13142347 44.7987446 24.25 40.6875 C23.55261719 39.94838379 22.85523438 39.20926758 22.13671875 38.44775391 C-0.65487127 13.20120777 -0.65487127 13.20120777 -31.8046875 3.0078125 C-43.51028388 2.97919246 -53.85060953 7.66378247 -62.375 15.625 Z " fill="#FFFFFF" transform="translate(467,9)"/>
<path d="M0 0 C126.84172662 0 126.84172662 0 158.26171875 30.171875 C174.64455696 47.29499864 181.63669805 70.98147168 181.4375 94.25 C181.42920166 95.51416748 181.42090332 96.77833496 181.41235352 98.08081055 C180.97270476 122.57128025 172.69389362 144.11537474 155.5625 161.875 C142.35435476 174.48111652 125.75270726 182.83784311 108 187 C106.88782104 187.2618811 106.88782104 187.2618811 105.75317383 187.52905273 C95.18997318 189.62911412 84.54629938 189.25126772 73.828125 189.1953125 C71.93408323 189.19236608 70.04003982 189.19032933 68.14599609 189.18920898 C61.18063897 189.17879108 54.21531688 189.15086869 47.25 189.125 C31.6575 189.08375 16.065 189.0425 0 189 C0 126.63 0 64.26 0 0 Z M28 24 C28 70.53 28 117.06 28 165 C86.74846232 168.29541972 86.74846232 168.29541972 135.58203125 143.6328125 C148.72304336 129.32418219 153.86815399 111.45894444 154.03125 92.3359375 C153.20492863 74.03291915 146.8569798 57.1734593 134 44 C104.36032684 17.68129862 65.50149408 24 28 24 Z " fill="#FFFFFF" transform="translate(1966,59)"/>
<path d="M0 0 C9.24 0 18.48 0 28 0 C28 26.73 28 53.46 28 81 C63.31 81 98.62 81 135 81 C135 54.27 135 27.54 135 0 C144.24 0 153.48 0 163 0 C163 62.37 163 124.74 163 189 C153.76 189 144.52 189 135 189 C135 161.28 135 133.56 135 105 C99.69 105 64.38 105 28 105 C28 132.72 28 160.44 28 189 C18.76 189 9.52 189 0 189 C0 126.63 0 64.26 0 0 Z " fill="#FFFFFF" transform="translate(688,59)"/>
<path d="M0 0 C44.22 0 88.44 0 134 0 C134 7.92 134 15.84 134 24 C99.02 24 64.04 24 28 24 C28 42.81 28 61.62 28 81 C59.02 81 90.04 81 122 81 C122 88.92 122 96.84 122 105 C90.98 105 59.96 105 28 105 C28 124.8 28 144.6 28 165 C63.97 165 99.94 165 137 165 C137 172.92 137 180.84 137 189 C91.79 189 46.58 189 0 189 C0 126.63 0 64.26 0 0 Z " fill="#FFFFFF" transform="translate(2196,59)"/>
<path d="M0 0 C43.89 0 87.78 0 133 0 C133 7.92 133 15.84 133 24 C98.35 24 63.7 24 28 24 C28 42.81 28 61.62 28 81 C59.02 81 90.04 81 122 81 C122 88.92 122 96.84 122 105 C90.98 105 59.96 105 28 105 C28 124.8 28 144.6 28 165 C63.97 165 99.94 165 137 165 C137 172.92 137 180.84 137 189 C91.79 189 46.58 189 0 189 C0 126.63 0 64.26 0 0 Z " fill="#FFFFFF" transform="translate(915,59)"/>
<path d="M0 0 C3.81458245 3.35771327 7.20156847 6.59495663 10.20703125 10.6953125 C7.64411275 13.40294061 5.05367921 16.0825463 2.45703125 18.7578125 C1.36261719 19.91506836 1.36261719 19.91506836 0.24609375 21.09570312 C-0.46289062 21.82080078 -1.171875 22.54589844 -1.90234375 23.29296875 C-2.55170898 23.96851807 -3.20107422 24.64406738 -3.87011719 25.34008789 C-5.79296875 26.6953125 -5.79296875 26.6953125 -7.88061523 26.52172852 C-10.67317885 25.31493318 -12.75196302 23.49087734 -15.10546875 21.5703125 C-32.91628132 7.69182944 -54.07605431 4.41331812 -76.18505859 6.97216797 C-95.34760251 10.03904503 -111.94824464 20.72385004 -123.2734375 36.34765625 C-134.35019474 53.4611038 -137.82745332 74.09872542 -133.71044922 94.0769043 C-129.40279761 111.96702404 -119.62396679 126.70269405 -104.15234375 136.7265625 C-92.46498078 143.5759008 -80.36428849 147.8898205 -66.79296875 148.6953125 C-66.096875 148.74816406 -65.40078125 148.80101562 -64.68359375 148.85546875 C-51.42460466 149.38125625 -37.60975997 146.6490875 -25.79296875 140.6953125 C-23.81296875 139.7053125 -21.83296875 138.7153125 -19.79296875 137.6953125 C-19.29796875 107.0053125 -19.29796875 107.0053125 -18.79296875 75.6953125 C-9.88296875 75.6953125 -0.97296875 75.6953125 8.20703125 75.6953125 C8.45605443 85.33581814 8.65762592 94.97417199 8.77696514 104.61717224 C8.8342582 109.09544812 8.91188313 113.57140111 9.03686523 118.04833984 C9.15684293 122.37333775 9.22224526 126.69610998 9.25068092 131.02264404 C9.27092855 132.66871182 9.31047473 134.31466432 9.37006187 135.95977783 C9.81745746 148.82958023 9.81745746 148.82958023 5.82600403 153.45381165 C3.0333934 155.51684471 0.31016178 157.14863619 -2.79296875 158.6953125 C-4.13228321 159.47692418 -5.47009303 160.26113725 -6.8046875 161.05078125 C-8.02290086 161.67539778 -9.24829196 162.28621386 -10.48046875 162.8828125 C-11.14908936 163.21104004 -11.81770996 163.53926758 -12.5065918 163.87744141 C-38.99910946 176.46641361 -70.57703355 178.18668273 -98.54296875 169.5703125 C-111.62840277 164.77805925 -123.52675387 158.17949805 -133.79296875 148.6953125 C-134.55738281 148.02242187 -135.32179688 147.34953125 -136.109375 146.65625 C-153.616289 130.39765508 -163.11459314 106.40357221 -164.015625 82.8046875 C-164.64513902 56.38217864 -158.03885739 31.58713626 -139.85546875 11.7578125 C-126.73193221 -1.99290653 -111.16789025 -11.39829485 -92.79296875 -16.3046875 C-91.63410156 -16.62308594 -90.47523437 -16.94148438 -89.28125 -17.26953125 C-59.56751862 -24.12168822 -24.00480635 -19.80816189 0 0 Z " fill="#FFFFFF" transform="translate(1693.79296875,76.3046875)"/>
<path d="M0 0 C9.24 0 18.48 0 28 0 C33.10826481 10.05283936 37.94801556 20.14581603 42.46826172 30.47412109 C44.1862398 34.39734258 45.91875074 38.314127 47.65234375 42.23046875 C48.18878006 43.4425148 48.18878006 43.4425148 48.73605347 44.67904663 C52.57244891 53.32522557 56.53183403 61.91371083 60.5 70.5 C66.44092981 83.36114494 72.25919956 96.27027875 77.98471069 109.22866821 C83.15756271 120.93006377 88.45091403 132.57145266 93.8125 144.1875 C98.79657946 154.9914791 103.7519977 165.80486858 108.5625 176.6875 C109.02180908 177.72092529 109.48111816 178.75435059 109.9543457 179.8190918 C110.56669067 181.21381714 110.56669067 181.21381714 111.19140625 182.63671875 C111.54404541 183.43811279 111.89668457 184.23950684 112.26000977 185.06518555 C113 187 113 187 113 189 C103.43 189 93.86 189 84 189 C79.46102848 179.49982705 75.1621745 169.90514274 70.96102905 160.25152588 C70.36120878 158.87366886 69.76015114 157.49634986 69.15786743 156.11956787 C68.30059267 154.15819101 67.44837746 152.19469549 66.59765625 150.23046875 C66.09758057 149.07957764 65.59750488 147.92868652 65.08227539 146.74291992 C64 144 64 144 64 142 C14.995 142.495 14.995 142.495 -35 143 C-45.73514191 165.71578908 -45.73514191 165.71578908 -55 189 C-64.57 189 -74.14 189 -84 189 C-80.62518645 178.87555934 -80.62518645 178.87555934 -79.12158203 175.58300781 C-78.78285065 174.83525085 -78.44411926 174.0874939 -78.09512329 173.31707764 C-77.55690445 172.14692108 -77.55690445 172.14692108 -77.0078125 170.953125 C-76.62587738 170.11291809 -76.24394226 169.27271118 -75.85043335 168.40704346 C-74.61265308 165.68617232 -73.36879189 162.96812753 -72.125 160.25 C-71.25663966 158.34333652 -70.38880616 156.43643301 -69.52148438 154.52929688 C-68.22012395 151.66787294 -66.91848466 148.80658086 -65.61517334 145.94604492 C-62.21266647 138.47761532 -58.84653856 130.99369495 -55.5 123.5 C-50.20112097 111.65099837 -44.85403324 99.82415535 -39.5 88 C-32.27368516 72.03922063 -25.07767074 56.0655917 -17.9262085 40.07110596 C-16.09345436 35.9728624 -14.25949059 31.87515998 -12.42578125 27.77734375 C-8.2828633 18.51867219 -4.14120539 9.25943767 0 0 Z M14 30 C9.75274839 38.26757222 5.89761146 46.64030523 2.25 55.1875 C1.12589658 57.80823918 -0.00113587 60.42771196 -1.12890625 63.046875 C-1.42815506 63.74244003 -1.72740387 64.43800507 -2.03572083 65.15464783 C-4.5822753 71.06091553 -7.17530945 76.94612129 -9.77734375 82.828125 C-10.1840329 83.74874222 -10.59072205 84.66935944 -11.00973511 85.61787415 C-14.29173738 93.04721368 -14.29173738 93.04721368 -15.89807129 96.66073608 C-17.04416385 99.23950339 -18.18465725 101.82068511 -19.32421875 104.40234375 C-19.66637924 105.1678656 -20.00853973 105.93338745 -20.36106873 106.72210693 C-20.67979446 107.44666077 -20.9985202 108.1712146 -21.3269043 108.91772461 C-21.60302048 109.54005478 -21.87913666 110.16238495 -22.16362 110.80357361 C-23.30521848 113.80153747 -24.11870445 116.91546558 -25 120 C1.07 120 27.14 120 54 120 C46.14400076 101.0554878 46.14400076 101.0554878 37.875 82.3125 C32.5245654 70.48924826 27.32802007 58.60345656 22.1875 46.6875 C21.82694519 45.85175446 21.46639038 45.01600891 21.09490967 44.15493774 C19.06059823 39.43777399 17.029105 34.71940551 15 30 C14.67 30 14.34 30 14 30 Z " fill="#FFFFFF" transform="translate(1817,59)"/>
<path d="M0 0 C4.26799757 -0.24911983 8.53205051 -0.42947331 12.80517578 -0.54931641 C14.25481912 -0.59930411 15.70396581 -0.6673306 17.15185547 -0.75439453 C29.10567337 -1.45465264 29.10567337 -1.45465264 33.56762695 1.97167969 C35.64239053 4.5439012 37.3287204 7.15174859 39 10 C40.04088589 11.43813678 41.0960967 12.86605703 42.16796875 14.28125 C43.17710858 15.6856143 44.18356189 17.09191245 45.1875 18.5 C46.31633547 20.07296746 47.44524381 21.64588264 48.57421875 23.21875 C49.4257251 24.40791016 49.4257251 24.40791016 50.29443359 25.62109375 C53.01921166 29.4215858 55.76003592 33.21044956 58.5 37 C61.8599132 41.64915844 65.21701067 46.30028801 68.56640625 50.95703125 C69.15164063 51.76978516 69.736875 52.58253906 70.33984375 53.41992188 C71.45679277 54.97123996 72.57274047 56.52327969 73.6875 58.07617188 C75.85236719 61.08109567 78.01911466 64.02327138 80.37109375 66.88671875 C82 69 82 69 82 71 C86.13361765 67.12847767 89.300201 62.97256309 92.5 58.3125 C93.55895839 56.79101377 94.61888751 55.27020281 95.6796875 53.75 C96.49711426 52.57630859 96.49711426 52.57630859 97.33105469 51.37890625 C100.05603699 47.49473019 102.83990878 43.65369254 105.625 39.8125 C106.72020491 38.29958979 107.81525948 36.78657073 108.91015625 35.2734375 C109.43367676 34.54995117 109.95719727 33.82646484 110.49658203 33.08105469 C112.28844742 30.60072657 114.07614087 28.11761487 115.84985352 25.62426758 C116.65624842 24.50258802 117.47579623 23.39024493 118.30834961 22.2878418 C120.68564268 19.09374716 122.52885075 15.97747235 124.1953125 12.35546875 C126.72233228 7.33330613 129.01385117 2.89527801 134 0 C144.13612772 -2.11325428 154.77778788 -1.03857525 165 0 C161.94700461 5.63572499 158.40686964 10.69091704 154.5625 15.8125 C153.30262801 17.50594719 152.0435311 19.19997126 150.78515625 20.89453125 C150.15109863 21.74740723 149.51704102 22.6002832 148.86376953 23.47900391 C146.04236269 27.29533179 143.26981119 31.14614569 140.5 35 C136.04027643 41.19689015 131.53736319 47.3597401 127 53.5 C117.84848896 65.88924815 108.75639211 78.32711251 100 91 C102.78941552 96.11283456 105.88934952 100.70154216 109.4375 105.3125 C113.82853608 111.09156955 118.14122183 116.91722694 122.375 122.8125 C126.87525299 129.07286994 131.41710181 135.29986938 136 141.5 C142.17298963 149.85575603 148.26969671 158.2640919 154.33837891 166.69580078 C156.11052387 169.1532654 157.88863591 171.60632913 159.66796875 174.05859375 C160.26730225 174.88544678 160.86663574 175.7122998 161.48413086 176.56420898 C162.63881598 178.15694968 163.79453535 179.74894121 164.95141602 181.34008789 C165.46760498 182.05285889 165.98379395 182.76562988 166.515625 183.5 C166.97227539 184.1290625 167.42892578 184.758125 167.89941406 185.40625 C169 187 169 187 170 189 C142.03828826 191.82930059 142.03828826 191.82930059 134.37060547 187.5234375 C130.21011133 183.57325406 127.76175188 178.66460066 125.30273438 173.54003906 C123.15939967 169.36101839 120.32251776 165.73830833 117.5 162 C116.4131389 160.50255416 115.32980135 159.00254456 114.25 157.5 C113.71375 156.7575 113.1775 156.015 112.625 155.25 C111 153 109.375 150.75 107.75 148.5 C106.94429565 147.38443726 106.94429565 147.38443726 106.12231445 146.24633789 C105.04786151 144.75859651 103.97347905 143.27080422 102.89916992 141.78295898 C100.05556686 137.84496422 97.21045216 133.90807241 94.36328125 129.97265625 C93.76902344 129.15087891 93.17476562 128.32910156 92.5625 127.48242188 C91.42102209 125.90397195 90.27911518 124.32583215 89.13671875 122.74804688 C88.36714844 121.68360352 88.36714844 121.68360352 87.58203125 120.59765625 C86.90491089 119.66191772 86.90491089 119.66191772 86.21411133 118.70727539 C85.11300446 117.15890613 84.05391339 115.58087009 83 114 C82.34 114 81.68 114 81 114 C79.69644595 115.51209776 79.69644595 115.51209776 78.41796875 117.5234375 C77.64839844 118.67017944 77.64839844 118.67017944 76.86328125 119.84008789 C76.31027344 120.67660889 75.75726562 121.51312988 75.1875 122.375 C74.0058429 124.13281384 72.82219924 125.88929366 71.63671875 127.64453125 C71.03134277 128.54123535 70.4259668 129.43793945 69.80224609 130.36181641 C67.10349729 134.3123284 64.31252407 138.19249091 61.5 142.0625 C60.96536133 142.79895752 60.43072266 143.53541504 59.87988281 144.29418945 C58.79711209 145.78389338 57.71361736 147.27307135 56.62939453 148.76171875 C53.89118639 152.523165 51.16330904 156.29206222 48.4375 160.0625 C47.90664795 160.79678223 47.3757959 161.53106445 46.82885742 162.28759766 C37.24866922 175.52811763 37.24866922 175.52811763 28 189 C25.44604513 189.26711404 23.13725626 189.34849029 20.5859375 189.29296875 C19.85629791 189.28872391 19.12665833 189.28447906 18.37490845 189.28010559 C16.04123241 189.26329353 13.7084156 189.22563868 11.375 189.1875 C9.79428329 189.17245634 8.21355307 189.15876738 6.6328125 189.14648438 C2.75487656 189.11338201 -1.12241598 189.06158404 -5 189 C-0.99564305 182.87552989 3.19102852 176.92942585 7.5625 171.0625 C12.26634987 164.71383375 16.94236993 158.34738481 21.5625 151.9375 C22.09504395 151.19886719 22.62758789 150.46023437 23.17626953 149.69921875 C24.78492417 147.4666808 26.39264328 145.23347255 28 143 C34.70887314 133.67781048 41.44013432 124.37378198 48.25 115.125 C48.83330078 114.33029297 49.41660156 113.53558594 50.01757812 112.71679688 C52.60621173 109.19966358 55.211148 105.70461109 57.91796875 102.27734375 C58.56427246 101.45049072 58.56427246 101.45049072 59.22363281 100.60693359 C60.34588182 99.1790681 61.4828602 97.76281245 62.62109375 96.34765625 C64.2278694 94.16929828 64.2278694 94.16929828 63.7277832 92.07055664 C62.96848451 89.91033785 62.06881389 88.37889857 60.734375 86.5234375 C60.26330322 85.862229 59.79223145 85.20102051 59.30688477 84.51977539 C58.79311279 83.81199951 58.27934082 83.10422363 57.75 82.375 C57.2149585 81.62790771 56.67991699 80.88081543 56.12866211 80.11108398 C54.42530728 77.73619284 52.71322352 75.36777898 51 73 C49.92286048 71.50413418 48.84603171 70.00804454 47.76953125 68.51171875 C45.06627691 64.7586649 42.35489129 61.01156218 39.64111328 57.26611328 C36.92351831 53.51355206 34.21202514 49.7565875 31.5 46 C27.65846424 40.67992505 23.81520606 35.36110274 19.9699707 30.04370117 C18.34289 27.79205539 16.71810961 25.53876556 15.09375 23.28515625 C13.08203877 20.49453558 11.06076468 17.71128848 9.03125 14.93359375 C8.12490179 13.68496711 7.21864641 12.43627309 6.3125 11.1875 C5.90233643 10.63094727 5.49217285 10.07439453 5.06958008 9.50097656 C2.8544041 6.43519192 1.3374518 3.52384954 0 0 Z " fill="#FFFFFF" transform="translate(1343,59)"/>
<path d="M0 0 C9.24 0 18.48 0 28 0 C28 54.45 28 108.9 28 165 C61.66 165 95.32 165 130 165 C130 172.92 130 180.84 130 189 C87.1 189 44.2 189 0 189 C0 126.63 0 64.26 0 0 Z " fill="#FFFFFF" transform="translate(1103,59)"/>
<path d="M0 0 C9.24 0 18.48 0 28 0 C28 62.37 28 124.74 28 189 C18.76 189 9.52 189 0 189 C0 126.63 0 64.26 0 0 Z " fill="#FFFFFF" transform="translate(1271,59)"/>
<path d="M0 0 C2.6389578 1.3194789 2.66948737 2.34412891 3.62890625 5.09375 C4.09103516 6.37983154 4.09103516 6.37983154 4.5625 7.69189453 C4.8925 8.61856934 5.2225 9.54524414 5.5625 10.5 C10.87003183 24.87293329 17.42320612 37.97039262 27 50 C27.73605469 50.97324219 28.47210938 51.94648438 29.23046875 52.94921875 C39.0282387 65.43218503 50.63713958 73.50071092 65 80 C66.33679865 80.65969054 67.67188983 81.32298774 69 82 C63.212247 87.787753 53.32079172 87.36377767 45.625 87.4375 C29.0760612 87.33852658 16.38425871 81.76818005 4.32421875 70.484375 C-7.19952369 58.16655955 -10.52184389 44.17800361 -10.28125 27.8828125 C-9.92392127 18.65301128 -6.78102509 6.78102509 0 0 Z " fill="#FFFFFF" transform="translate(390,220)"/>
<path d="M0 0 C0.92941406 0.38929688 1.85882813 0.77859375 2.81640625 1.1796875 C14.22518377 6.66498878 24.60157065 17.11985754 29.140625 28.98046875 C34.2556413 43.76718841 35.30893343 59.74722252 28.46484375 74.25390625 C27.0434793 76.88494257 25.5741008 79.4580055 24 82 C23.01 82 22.02 82 21 82 C20.6596875 81.030625 20.319375 80.06125 19.96875 79.0625 C13.0246801 59.69181449 3.76124604 41.46699514 -10 26 C-10.75925781 25.14535156 -11.51851562 24.29070313 -12.30078125 23.41015625 C-21.50038304 13.63840246 -32.62020741 7.02771169 -45 2 C-45 1.34 -45 0.68 -45 0 C-30.37886196 -5.87995497 -14.59703511 -6.23068076 0 0 Z " fill="#FFFFFF" transform="translate(166,4)"/>
<path d="M0 0 C6.12812987 4.42139195 9.21239554 9.96383545 10.78125 17.28515625 C11.60126544 24.9386337 9.45402767 31.5892143 4.71875 37.59765625 C-0.2813147 42.8714087 -6.49337533 45.3766545 -13.71875 45.78515625 C-20.97722246 45.37478325 -27.17028401 42.86751566 -32.15625 37.53515625 C-36.75185804 31.67142051 -38.80820657 25.98572811 -38.5 18.51171875 C-37.61725199 11.52329702 -34.49892612 5.93927122 -29.21875 1.28515625 C-20.10219086 -4.51149985 -9.63301078 -5.50739756 0 0 Z " fill="#FFFFFF" transform="translate(367.21875,132.71484375)"/>
<path d="M0 0 C6.0407472 5.2856538 8.42240965 11.54430304 9.4375 19.375 C8.56781939 26.58092507 6.67926655 32.95548462 1.25 38 C-4.52637265 42.45239814 -10.3009075 44.65621088 -17.640625 44.33984375 C-25.28747899 43.23839293 -30.82747143 40.21822041 -35.59375 34.13671875 C-39.53680653 28.14546341 -41.02823013 22.1385172 -40 15 C-38.13433821 7.34961329 -34.63586799 2.26254154 -28 -2 C-19.06959946 -6.72689699 -8.20584636 -5.92044617 0 0 Z " fill="#FFFFFF" transform="translate(305,134)"/>
<path d="M0 0 C5.38034194 4.59774675 7.91994663 10.052349 9 17 C9.27122099 24.46987818 7.49041553 31.09321511 2.4609375 36.72265625 C-2.71265048 41.53007704 -8.30936105 44.05187534 -15.375 44.4375 C-22.70093397 44.12172698 -28.90762679 41.62931703 -33.9375 36.25 C-38.45447502 30.48659555 -40.65745263 24.7279011 -40.33984375 17.359375 C-39.24693259 9.77180789 -36.25040548 4.13581 -30.1953125 -0.58984375 C-20.82494269 -6.60888912 -9.16033221 -6.58901089 0 0 Z " fill="#FFFFFF" transform="translate(241,134)"/>
<path d="M0 0 C3.53618929 1.17872976 4.00536498 2.3520004 5.65209961 5.55639648 C6.1027478 6.48754272 6.1027478 6.48754272 6.5625 7.4375 C6.8726001 8.0756665 7.1827002 8.71383301 7.50219727 9.37133789 C13.75497843 22.6821446 13.91512697 38.16689646 9 52 C3.00617978 67.04218343 -7.49185052 77.49994122 -22.3125 83.875 C-36.23002989 89.48660751 -53.24187433 88.71766262 -67 83 C-62.31818761 77.62398784 -54.55235543 74.327723 -47.5703125 73.68359375 C-45.37813187 73.72743736 -43.18631362 73.79980044 -40.99609375 73.90234375 C-30.50909224 74.24416257 -21.27397204 69.46513805 -13.75 62.4375 C-5.33124539 53.58123531 -1.82374711 44.15940596 -1.8125 32.125 C-1.80025391 31.44308594 -1.78800781 30.76117188 -1.77539062 30.05859375 C-1.76199593 25.37044985 -2.63601871 21.51750603 -4 17 C-3.70650971 10.93453402 -2.08950293 5.67714003 0 0 Z " fill="#FFFFFF" transform="translate(187,220)"/>
<path d="M0 0 C0 0.66 0 1.32 0 2 C-0.83144531 2.33773438 -1.66289062 2.67546875 -2.51953125 3.0234375 C-3.60621094 3.46945313 -4.69289063 3.91546875 -5.8125 4.375 C-6.89144531 4.81585938 -7.97039062 5.25671875 -9.08203125 5.7109375 C-12.10730112 6.9479119 -12.10730112 6.9479119 -15 9 C-17.34765625 9.125 -17.34765625 9.125 -20.0625 9 C-32.53453152 8.83632505 -43.58931327 12.5259859 -52.875 21.125 C-60.98080653 29.8055819 -64.17816798 39.32196009 -64.1875 50.875 C-64.19974609 51.66519531 -64.21199219 52.45539062 -64.22460938 53.26953125 C-64.23630657 57.95620549 -63.65343779 61.56009135 -62 66 C-62.23672866 72.15494515 -64.58649302 77.42086991 -67 83 C-74.05681016 76.95130557 -77.41182111 67.00663946 -78.17285156 57.94091797 C-79.04969463 41.14458374 -75.96894946 27.08667147 -65 13.875 C-49.00988908 -2.94541818 -21.68157062 -10.84078531 0 0 Z " fill="#FFFFFF" transform="translate(458,4)"/>
</svg>
